<svg width="624" height="76" viewBox="0 0 624 76" fill="none" xmlns="http://www.w3.org/2000/svg">
<g clip-path="url(#clip0_3831_2416)">
<path d="M361.975 49.5543C365.271 55.1345 371.384 58.8858 379.485 58.8858C387.586 58.8858 389.895 55.228 389.895 51.8772C389.895 46.7065 384.454 44.7916 377.013 42.1722C375.54 41.6538 373.988 41.1076 372.385 40.5032C362.388 36.8453 355.475 31.3719 355.475 19.9979C355.475 7.31567 366.672 0 379.485 0C391.283 0 398.49 5.687 402.787 11.7745L392.484 20.0914C389.988 16.5404 385.878 14.0039 379.885 14.0039C373.893 14.0039 370.676 16.4469 370.676 19.7843C370.676 24.3355 373.962 25.4881 380.676 27.8429C382.647 28.5342 384.914 29.3291 387.479 30.344C400.078 35.2167 405.283 41.2107 405.283 51.3565C405.283 63.8386 397.075 72.9832 379.378 72.9832C364.377 72.9832 355.074 65.8811 350.764 57.3506L361.975 49.541V49.5543Z" fill="black"/>
<path d="M175.168 13.2162C168.254 5.08622 158.258 0.0133057 146.954 0.0133057V0.0266557C126.24 0.0266557 109.438 15.4456 109.438 36.565C109.438 57.6843 126.24 73.0098 146.954 73.0098C158.258 73.0098 168.361 67.9369 175.261 59.7135L164.758 50.6757C160.353 55.7486 153.96 58.7923 146.954 58.7923C134.555 58.7923 124.852 49.354 124.852 36.565C124.852 23.7759 134.555 14.2308 146.954 14.2308C153.96 14.2308 160.26 17.2745 164.664 22.254L175.168 13.2162Z" fill="black"/>
<path d="M84.7803 14.9017C80.1907 14.9017 76.3153 17.9471 75.0569 22.1276H37.8788V6.12H0V43.9988H37.8788V27.9911H75.0569C76.3153 32.1716 80.1907 35.2171 84.7803 35.2171C90.3902 35.2171 94.9379 30.6693 94.9379 25.0594C94.9379 19.4495 90.3902 14.9017 84.7803 14.9017Z" fill="black"/>
<path d="M73.8463 58.8612C73.8463 66.3681 67.7607 72.4536 60.2539 72.4536C52.747 72.4536 46.6615 66.3681 46.6615 58.8612C46.6615 51.3544 52.747 45.2689 60.2539 45.2689C67.7607 45.2689 73.8463 51.3544 73.8463 58.8612Z" fill="black"/>
<path d="M199.098 1.13477H214.513V57.671H241.712V71.8752H199.098V1.13477Z" fill="black"/>
<path fill-rule="evenodd" clip-rule="evenodd" d="M304.693 1.13477H291.013L262.198 71.8885H278.601L283.299 60.0072H312.407L317.105 71.8885H333.507L304.693 1.13477ZM297.886 21.8403L307.989 47.5252H287.676L297.886 21.8403Z" fill="black"/>
<path d="M453.85 58.8858C445.749 58.8858 439.636 55.1345 436.34 49.5543V49.541L425.129 57.3506C429.44 65.8811 438.742 72.9832 453.743 72.9832C471.44 72.9832 479.648 63.8386 479.648 51.3565C479.648 41.2107 474.443 35.2167 461.844 30.344C459.279 29.3291 457.012 28.5342 455.041 27.8429C448.328 25.4881 445.041 24.3355 445.041 19.7843C445.041 16.4469 448.258 14.0039 454.25 14.0039C460.243 14.0039 464.353 16.5404 466.849 20.0914L477.152 11.7745C472.855 5.687 465.648 0 453.85 0C441.038 0 429.84 7.31567 429.84 19.9979C429.84 31.3719 436.753 36.8453 446.75 40.5032C448.353 41.1076 449.904 41.6537 451.378 42.1721C458.819 44.7915 464.26 46.7065 464.26 51.8772C464.26 55.228 461.951 58.8858 453.85 58.8858Z" fill="black"/>
<path d="M522.155 1.13477H506.754V71.8885H522.155V1.13477Z" fill="black"/>
<path fill-rule="evenodd" clip-rule="evenodd" d="M624 36.5516C624 16.0464 607.491 0.0133057 586.991 0.0133057V0.0266557C566.385 0.0266557 549.582 16.1665 549.582 36.565C549.582 56.9634 566.385 72.7962 586.991 72.7962C593.598 72.7962 599.804 71.1676 604.702 67.9236L611.402 75.84L621.705 67.0024L615.299 59.3931C620.597 53.399 624 45.4826 624 36.5516ZM594.892 56.9501C592.597 58.0714 589.994 58.5787 586.991 58.5787C574.686 58.5787 564.984 48.9402 564.984 36.5516C564.984 24.163 574.98 14.2175 586.991 14.2175C599.003 14.2175 608.599 24.2698 608.599 36.5516C608.599 41.0104 607.398 45.2824 605.396 48.3261L596.494 37.8732L586.191 46.8042L594.892 56.9501Z" fill="black"/>
</g>
<defs>
<clipPath id="clip0_3831_2416">
<rect width="624" height="76" fill="white"/>
</clipPath>
</defs>
</svg>
