<svg width="20" height="20" viewBox="0 0 21 21" fill="none" xmlns="http://www.w3.org/2000/svg">
<path d="M18.0416 5.03771C17.6076 5.04984 17.1891 5.20216 16.8488 5.4719C16.5085 5.74165 16.2647 6.11431 16.1538 6.53415H7.61263V3.1499H0V11.1539H7.61263V7.76966H16.1154C16.2199 8.19909 16.4629 8.58215 16.8069 8.85958C17.151 9.13701 17.5768 9.29337 18.0186 9.30447C18.5655 9.28053 19.0808 9.0411 19.4518 8.63849C19.8227 8.23588 20.0193 7.70281 19.9985 7.15574C20.0113 6.61769 19.8142 6.09577 19.449 5.70046C19.0837 5.30514 18.579 5.06746 18.0416 5.03771V5.03771Z"/>
<path d="M10.0002 16.8479C10.3631 16.8351 10.7198 16.7508 11.0501 16.5999C11.3804 16.4491 11.6777 16.2346 11.925 15.9687C12.1723 15.7029 12.3648 15.3909 12.4915 15.0506C12.6181 14.7103 12.6764 14.3484 12.6631 13.9855C12.6817 13.2579 12.4125 12.5523 11.9139 12.0221C11.4153 11.4919 10.7276 11.1799 10.0002 11.1538C9.63733 11.1667 9.28055 11.2509 8.95028 11.4018C8.62 11.5527 8.3227 11.7672 8.07539 12.033C7.82807 12.2989 7.63558 12.6108 7.50894 12.9511C7.38229 13.2914 7.32397 13.6534 7.33731 14.0162C7.31865 14.7438 7.58788 15.4494 8.08649 15.9796C8.58511 16.5099 9.27282 16.8219 10.0002 16.8479Z"/>
</svg>
